<svg width="287" height="323" viewBox="0 0 287 323" fill="none" xmlns="http://www.w3.org/2000/svg">
<line x1="6.5" y1="101.667" x2="6.50001" y2="295.232" stroke="#ADB5BD" stroke-linecap="round" stroke-dasharray="4 4"/>
<line x1="238" y1="103.167" x2="238" y2="294" stroke="#0956AF" stroke-width="4" stroke-linecap="round" stroke-dasharray="1 10"/>
<path d="M238 94.1667L231 79L245 79L238 94.1667Z" fill="#0956AF"/>
<line x1="279.643" y1="296.232" x2="6.5" y2="296.232" stroke="#ADB5BD" stroke-linecap="round" stroke-dasharray="4 4"/>
<path d="M12.8535 290.401C44.3818 290.401 55.2542 246.842 69.9666 205.113" stroke="#EF233C" stroke-width="8" stroke-linecap="round"/>
<path d="M216.176 200.114C201.042 163.017 181.598 128.151 142.448 128.151C103.297 128.151 85.9704 163.017 72.251 200.114" stroke="#F8B324" stroke-width="8" stroke-linecap="round"/>
<path d="M275.574 290.401C247.16 290.401 235.286 246.842 218.461 205.113" stroke="#28A264" stroke-width="8" stroke-linecap="round"/>
<path d="M39.75 31.5C38.7678 31.5015 37.7978 31.7172 36.9077 32.1323C36.0175 32.5473 35.2286 33.1516 34.5961 33.903C33.9636 34.6544 33.5027 35.5347 33.2455 36.4826C32.9884 37.4305 32.9412 38.4231 33.1072 39.3911C33.2732 40.3592 33.6485 41.2793 34.2069 42.0873C34.7652 42.8953 35.4932 43.5717 36.3399 44.0694C37.1867 44.567 38.1318 44.8739 39.1094 44.9686C40.087 45.0632 41.0735 44.9434 42 44.6175" stroke="#0956AF" stroke-width="2" stroke-linecap="round" stroke-linejoin="round"/>
<path d="M33.594 35.1112C32.2475 34.463 31.0836 33.4897 30.2074 32.2791C29.3312 31.0686 28.7702 29.6589 28.575 28.1773C28.3799 26.6957 28.5568 25.1888 29.0897 23.7926C29.6226 22.3965 30.4948 21.155 31.6275 20.1802M31.695 19.998C30.9571 18.8938 30.6337 17.5641 30.782 16.2444C30.9303 14.9246 31.5408 13.6999 32.5054 12.7871C33.47 11.8742 34.7264 11.3321 36.0524 11.2567C37.3783 11.1813 38.6881 11.5774 39.75 12.375M40.2855 12.5212C39.9266 11.7586 39.7436 10.925 39.7502 10.0822C39.7567 9.2393 39.9526 8.40868 40.3234 7.6517C40.6941 6.89473 41.2303 6.23076 41.8921 5.70886C42.554 5.18696 43.3247 4.82049 44.1473 4.63652C44.9699 4.45256 45.8233 4.45581 46.6444 4.64603C47.4656 4.83625 48.2335 5.20859 48.8914 5.73551C49.5493 6.26243 50.0803 6.93047 50.4453 7.69024C50.8103 8.45002 50.9998 9.2821 51 10.125M51 10.125V45M51 10.125C51.0001 9.2821 51.1897 8.45002 51.5547 7.69024C51.9197 6.93047 52.4507 6.26243 53.1086 5.73551C53.7665 5.20859 54.5344 4.83625 55.3555 4.64603C56.1767 4.45581 57.0301 4.45256 57.8527 4.63652C58.6752 4.82049 59.446 5.18696 60.1078 5.70886C60.7697 6.23076 61.3059 6.89473 61.6766 7.6517C62.0474 8.40868 62.2433 9.2393 62.2498 10.0822C62.2564 10.925 62.0734 11.7586 61.7145 12.5212M51 45C51 46.1935 50.5259 47.3381 49.682 48.182C48.8381 49.0259 47.6935 49.5 46.5 49.5C45.3065 49.5 44.1619 49.0259 43.318 48.182C42.4741 47.3381 42 46.1935 42 45M51 45C51 46.1935 51.4741 47.3381 52.318 48.182C53.1619 49.0259 54.3065 49.5 55.5 49.5M51 15.75C51 17.5402 51.7111 19.2571 52.977 20.523C54.2429 21.7888 55.9598 22.5 57.75 22.5M70.3725 20.1802C71.3548 21.0241 72.143 22.0706 72.6828 23.2477C73.2227 24.4249 73.5014 25.7049 73.5 27C73.5 28.5817 73.0927 30.069 72.375 31.3605M70.305 19.998C71.0429 18.8938 71.3663 17.5641 71.218 16.2444C71.0697 14.9246 70.4592 13.6999 69.4946 12.7871C68.53 11.8742 67.2735 11.3321 65.9476 11.2567C64.6217 11.1813 63.3119 11.5774 62.25 12.375" stroke="#0956AF" stroke-width="2" stroke-linecap="round" stroke-linejoin="round"/>
<path d="M66.0007 36L62.2499 42.75H71.2499L67.4992 49.5" stroke="#F8B324" stroke-width="2" stroke-linecap="round" stroke-linejoin="round"/>
<path d="M88.506 23.5C88.422 23.5 88.352 23.472 88.296 23.416C88.24 23.3507 88.212 23.276 88.212 23.192C88.212 23.1453 88.2167 23.108 88.226 23.08C88.2447 23.052 88.2587 23.0287 88.268 23.01L90.298 20.238C90.13 20.2753 89.962 20.2893 89.794 20.28C89.346 20.2613 88.9213 20.1727 88.52 20.014C88.1187 19.846 87.7593 19.6173 87.442 19.328C87.1247 19.0387 86.8773 18.698 86.7 18.306C86.5227 17.914 86.434 17.48 86.434 17.004C86.434 16.5747 86.5133 16.1547 86.672 15.744C86.84 15.3333 87.0873 14.9647 87.414 14.638C87.7407 14.3113 88.1467 14.05 88.632 13.854C89.1173 13.658 89.682 13.56 90.326 13.56C90.97 13.56 91.5347 13.6487 92.02 13.826C92.5147 14.0033 92.93 14.2507 93.266 14.568C93.602 14.876 93.854 15.2353 94.022 15.646C94.19 16.0473 94.274 16.4767 94.274 16.934C94.274 17.3447 94.204 17.7273 94.064 18.082C93.924 18.4367 93.7513 18.768 93.546 19.076C93.3407 19.384 93.1353 19.6827 92.93 19.972L90.578 23.22C90.5407 23.2667 90.4847 23.3273 90.41 23.402C90.3353 23.4673 90.228 23.5 90.088 23.5H88.506ZM90.34 18.628C90.648 18.628 90.928 18.5627 91.18 18.432C91.432 18.3013 91.628 18.1147 91.768 17.872C91.9173 17.6293 91.992 17.34 91.992 17.004C91.992 16.6587 91.9173 16.3647 91.768 16.122C91.628 15.8793 91.432 15.6927 91.18 15.562C90.928 15.4313 90.648 15.366 90.34 15.366C90.0413 15.366 89.766 15.4313 89.514 15.562C89.262 15.6927 89.0613 15.8793 88.912 16.122C88.772 16.3647 88.702 16.6587 88.702 17.004C88.702 17.34 88.772 17.6293 88.912 17.872C89.0613 18.1147 89.262 18.3013 89.514 18.432C89.766 18.5627 90.0413 18.628 90.34 18.628ZM99.4807 23.64C98.8087 23.64 98.23 23.5467 97.7447 23.36C97.2687 23.164 96.872 22.898 96.5547 22.562C96.2467 22.2167 96.0134 21.82 95.8547 21.372C95.7054 20.9147 95.6167 20.4293 95.5887 19.916C95.5794 19.664 95.57 19.384 95.5607 19.076C95.5607 18.7587 95.5607 18.4413 95.5607 18.124C95.57 17.8067 95.5794 17.5173 95.5887 17.256C95.6074 16.7427 95.696 16.262 95.8547 15.814C96.0227 15.366 96.2654 14.974 96.5827 14.638C96.9 14.302 97.2967 14.0407 97.7727 13.854C98.258 13.658 98.8274 13.56 99.4807 13.56C100.134 13.56 100.699 13.658 101.175 13.854C101.651 14.0407 102.047 14.302 102.365 14.638C102.682 14.974 102.92 15.366 103.079 15.814C103.247 16.262 103.345 16.7427 103.373 17.256C103.382 17.5173 103.387 17.8067 103.387 18.124C103.396 18.4413 103.396 18.7587 103.387 19.076C103.387 19.384 103.382 19.664 103.373 19.916C103.345 20.4293 103.251 20.9147 103.093 21.372C102.934 21.82 102.696 22.2167 102.379 22.562C102.071 22.898 101.674 23.164 101.189 23.36C100.713 23.5467 100.143 23.64 99.4807 23.64ZM99.4807 21.82C100.022 21.82 100.419 21.6427 100.671 21.288C100.923 20.9333 101.058 20.4527 101.077 19.846C101.086 19.5753 101.091 19.2953 101.091 19.006C101.1 18.7167 101.1 18.4273 101.091 18.138C101.091 17.8487 101.086 17.578 101.077 17.326C101.058 16.7473 100.923 16.276 100.671 15.912C100.419 15.548 100.022 15.3613 99.4807 15.352C98.93 15.3613 98.5287 15.548 98.2767 15.912C98.034 16.276 97.9034 16.7473 97.8847 17.326C97.8754 17.578 97.866 17.8487 97.8567 18.138C97.8567 18.4273 97.8567 18.7167 97.8567 19.006C97.866 19.2953 97.8754 19.5753 97.8847 19.846C97.9034 20.4527 98.0387 20.9333 98.2907 21.288C98.5427 21.6427 98.9394 21.82 99.4807 21.82ZM112.034 26.16C111.931 26.16 111.847 26.1273 111.782 26.062C111.717 25.9967 111.684 25.9127 111.684 25.81V23.5C110.844 23.5 110.144 23.374 109.584 23.122C109.033 22.87 108.618 22.5153 108.338 22.058C108.058 21.5913 107.899 21.0453 107.862 20.42C107.834 20.0467 107.834 19.6733 107.862 19.3C107.899 18.6747 108.063 18.1333 108.352 17.676C108.651 17.2093 109.075 16.85 109.626 16.598C110.186 16.346 110.872 16.22 111.684 16.22V13.91C111.684 13.8073 111.717 13.7233 111.782 13.658C111.847 13.5927 111.931 13.56 112.034 13.56H113.434C113.527 13.56 113.607 13.5927 113.672 13.658C113.737 13.7233 113.77 13.8073 113.77 13.91V16.22C114.591 16.22 115.277 16.346 115.828 16.598C116.388 16.85 116.813 17.2093 117.102 17.676C117.401 18.1333 117.569 18.6747 117.606 19.3C117.625 19.6733 117.625 20.0467 117.606 20.42C117.569 21.0453 117.405 21.5913 117.116 22.058C116.836 22.5153 116.421 22.87 115.87 23.122C115.319 23.374 114.619 23.5 113.77 23.5V25.81C113.77 25.9127 113.737 25.9967 113.672 26.062C113.607 26.1273 113.527 26.16 113.434 26.16H112.034ZM111.698 21.96V17.76C111.101 17.76 110.662 17.9 110.382 18.18C110.111 18.46 109.962 18.88 109.934 19.44C109.925 19.5707 109.92 19.7153 109.92 19.874C109.92 20.0233 109.925 20.1587 109.934 20.28C109.971 20.8493 110.125 21.274 110.396 21.554C110.676 21.8247 111.11 21.96 111.698 21.96ZM113.756 21.96C114.363 21.96 114.801 21.82 115.072 21.54C115.343 21.26 115.497 20.84 115.534 20.28C115.543 20.1587 115.548 20.0233 115.548 19.874C115.548 19.7153 115.543 19.5707 115.534 19.44C115.506 18.8707 115.347 18.4507 115.058 18.18C114.778 17.9 114.344 17.76 113.756 17.76V21.96ZM122.439 23.64C121.664 23.64 121.015 23.514 120.493 23.262C119.97 23.0007 119.569 22.632 119.289 22.156C119.018 21.68 118.869 21.1247 118.841 20.49C118.831 20.3033 118.827 20.0933 118.827 19.86C118.827 19.6173 118.831 19.4073 118.841 19.23C118.869 18.586 119.027 18.0307 119.317 17.564C119.606 17.088 120.012 16.724 120.535 16.472C121.057 16.2107 121.692 16.08 122.439 16.08C123.176 16.08 123.806 16.2107 124.329 16.472C124.851 16.724 125.257 17.088 125.547 17.564C125.836 18.0307 125.995 18.586 126.023 19.23C126.041 19.4073 126.051 19.6173 126.051 19.86C126.051 20.0933 126.041 20.3033 126.023 20.49C125.995 21.1247 125.841 21.68 125.561 22.156C125.29 22.632 124.893 23.0007 124.371 23.262C123.848 23.514 123.204 23.64 122.439 23.64ZM122.439 22.1C122.896 22.1 123.241 21.96 123.475 21.68C123.708 21.3907 123.834 20.9707 123.853 20.42C123.862 20.28 123.867 20.0933 123.867 19.86C123.867 19.6267 123.862 19.44 123.853 19.3C123.834 18.7587 123.708 18.3433 123.475 18.054C123.241 17.7647 122.896 17.62 122.439 17.62C121.981 17.62 121.631 17.7647 121.389 18.054C121.155 18.3433 121.029 18.7587 121.011 19.3C121.001 19.44 120.997 19.6267 120.997 19.86C120.997 20.0933 121.001 20.28 121.011 20.42C121.029 20.9707 121.155 21.3907 121.389 21.68C121.631 21.96 121.981 22.1 122.439 22.1ZM127.837 23.5C127.753 23.5 127.678 23.4673 127.613 23.402C127.547 23.3367 127.515 23.2573 127.515 23.164V16.57C127.515 16.4673 127.547 16.3833 127.613 16.318C127.678 16.2527 127.757 16.22 127.851 16.22H129.251C129.353 16.22 129.437 16.2527 129.503 16.318C129.568 16.3833 129.601 16.4673 129.601 16.57V21.89L129.041 21.568L132.695 16.444C132.741 16.3787 132.793 16.3273 132.849 16.29C132.914 16.2433 132.993 16.22 133.087 16.22H134.347C134.44 16.22 134.519 16.2527 134.585 16.318C134.65 16.3833 134.683 16.458 134.683 16.542V23.15C134.683 23.2527 134.65 23.3367 134.585 23.402C134.519 23.4673 134.435 23.5 134.333 23.5H132.933C132.839 23.5 132.76 23.4673 132.695 23.402C132.629 23.3367 132.597 23.2527 132.597 23.15V18.04L133.171 18.138L129.489 23.276C129.451 23.3413 129.4 23.3973 129.335 23.444C129.269 23.4813 129.195 23.5 129.111 23.5H127.837ZM139.245 23.64C138.62 23.64 138.102 23.57 137.691 23.43C137.281 23.29 136.949 23.1127 136.697 22.898C136.455 22.674 136.277 22.4407 136.165 22.198C136.063 21.9553 136.002 21.736 135.983 21.54C135.974 21.4653 135.997 21.4047 136.053 21.358C136.109 21.302 136.17 21.274 136.235 21.274H137.607C137.71 21.274 137.785 21.2973 137.831 21.344C137.887 21.3813 137.934 21.4373 137.971 21.512C138.065 21.7453 138.219 21.9133 138.433 22.016C138.657 22.1093 138.947 22.156 139.301 22.156C139.535 22.156 139.745 22.1233 139.931 22.058C140.118 21.9927 140.258 21.8993 140.351 21.778C140.454 21.6473 140.505 21.484 140.505 21.288C140.505 21.0173 140.426 20.812 140.267 20.672C140.109 20.5227 139.843 20.448 139.469 20.448H138.699C138.606 20.448 138.531 20.42 138.475 20.364C138.419 20.2987 138.391 20.224 138.391 20.14V19.454C138.391 19.37 138.419 19.3 138.475 19.244C138.531 19.1787 138.606 19.146 138.699 19.146H139.427C139.735 19.146 139.964 19.09 140.113 18.978C140.263 18.8567 140.337 18.6747 140.337 18.432C140.337 18.2827 140.3 18.1427 140.225 18.012C140.16 17.8813 140.048 17.7787 139.889 17.704C139.731 17.62 139.511 17.578 139.231 17.578C138.839 17.578 138.559 17.6387 138.391 17.76C138.223 17.8813 138.097 18.0633 138.013 18.306C137.976 18.3807 137.929 18.4367 137.873 18.474C137.827 18.5113 137.752 18.53 137.649 18.53H136.319C136.245 18.53 136.179 18.5067 136.123 18.46C136.077 18.4133 136.053 18.3527 136.053 18.278C136.072 18.026 136.142 17.774 136.263 17.522C136.385 17.2607 136.567 17.0227 136.809 16.808C137.061 16.584 137.383 16.4067 137.775 16.276C138.177 16.1453 138.667 16.08 139.245 16.08C140.011 16.08 140.622 16.178 141.079 16.374C141.537 16.57 141.863 16.8267 142.059 17.144C142.265 17.452 142.367 17.788 142.367 18.152C142.367 18.4787 142.302 18.7727 142.171 19.034C142.041 19.286 141.807 19.496 141.471 19.664C141.891 19.8227 142.181 20.0653 142.339 20.392C142.498 20.7187 142.577 21.0687 142.577 21.442C142.587 21.8993 142.451 22.2913 142.171 22.618C141.901 22.9447 141.513 23.1967 141.009 23.374C140.515 23.5513 139.927 23.64 139.245 23.64ZM148.852 23.5C148.768 23.5 148.693 23.472 148.628 23.416C148.572 23.3507 148.544 23.2807 148.544 23.206V16.542C148.544 16.4487 148.572 16.374 148.628 16.318C148.693 16.2527 148.772 16.22 148.866 16.22H149.538C149.631 16.22 149.706 16.2527 149.762 16.318C149.818 16.374 149.846 16.4487 149.846 16.542V22.478L149.482 22.1L153.724 16.43C153.77 16.374 153.822 16.3273 153.878 16.29C153.934 16.2433 154.004 16.22 154.088 16.22H154.732C154.806 16.22 154.872 16.248 154.928 16.304C154.993 16.36 155.026 16.4253 155.026 16.5V23.178C155.026 23.2713 154.993 23.3507 154.928 23.416C154.872 23.472 154.797 23.5 154.704 23.5H154.046C153.943 23.5 153.864 23.472 153.808 23.416C153.752 23.3507 153.724 23.2713 153.724 23.178V17.592L154.116 17.578L149.846 23.29C149.808 23.3367 149.762 23.3833 149.706 23.43C149.65 23.4767 149.575 23.5 149.482 23.5H148.852ZM157.397 23.5C157.304 23.5 157.224 23.472 157.159 23.416C157.103 23.3507 157.075 23.2713 157.075 23.178V16.542C157.075 16.4487 157.103 16.374 157.159 16.318C157.224 16.2527 157.304 16.22 157.397 16.22H158.041C158.134 16.22 158.209 16.2527 158.265 16.318C158.33 16.374 158.363 16.4487 158.363 16.542V22.38H160.925V16.542C160.925 16.4487 160.953 16.374 161.009 16.318C161.074 16.2527 161.154 16.22 161.247 16.22H161.835C161.938 16.22 162.017 16.2527 162.073 16.318C162.129 16.374 162.157 16.4487 162.157 16.542V22.38H164.719V16.542C164.719 16.4487 164.747 16.374 164.803 16.318C164.868 16.2527 164.948 16.22 165.041 16.22H165.685C165.778 16.22 165.853 16.2527 165.909 16.318C165.974 16.374 166.007 16.4487 166.007 16.542V23.178C166.007 23.2713 165.974 23.3507 165.909 23.416C165.853 23.472 165.778 23.5 165.685 23.5H157.397ZM170.321 23.5C170.227 23.5 170.148 23.472 170.083 23.416C170.027 23.3507 169.999 23.2713 169.999 23.178V17.34H167.563C167.469 17.34 167.39 17.312 167.325 17.256C167.269 17.1907 167.241 17.1113 167.241 17.018V16.542C167.241 16.4487 167.269 16.374 167.325 16.318C167.39 16.2527 167.469 16.22 167.563 16.22H173.723C173.816 16.22 173.891 16.2527 173.947 16.318C174.012 16.374 174.045 16.4487 174.045 16.542V17.018C174.045 17.1113 174.012 17.1907 173.947 17.256C173.891 17.312 173.816 17.34 173.723 17.34H171.287V23.178C171.287 23.2713 171.259 23.3507 171.203 23.416C171.147 23.472 171.067 23.5 170.965 23.5H170.321ZM175.567 23.5C175.483 23.5 175.408 23.472 175.343 23.416C175.287 23.3507 175.259 23.2807 175.259 23.206V16.542C175.259 16.4487 175.287 16.374 175.343 16.318C175.408 16.2527 175.487 16.22 175.581 16.22H176.253C176.346 16.22 176.421 16.2527 176.477 16.318C176.533 16.374 176.561 16.4487 176.561 16.542V22.478L176.197 22.1L180.439 16.43C180.485 16.374 180.537 16.3273 180.593 16.29C180.649 16.2433 180.719 16.22 180.803 16.22H181.447C181.521 16.22 181.587 16.248 181.643 16.304C181.708 16.36 181.741 16.4253 181.741 16.5V23.178C181.741 23.2713 181.708 23.3507 181.643 23.416C181.587 23.472 181.512 23.5 181.419 23.5H180.761C180.658 23.5 180.579 23.472 180.523 23.416C180.467 23.3507 180.439 23.2713 180.439 23.178V17.592L180.831 17.578L176.561 23.29C176.523 23.3367 176.477 23.3833 176.421 23.43C176.365 23.4767 176.29 23.5 176.197 23.5H175.567ZM184.126 26.16C184.033 26.16 183.953 26.1273 183.888 26.062C183.832 26.006 183.804 25.9313 183.804 25.838V16.542C183.804 16.4487 183.832 16.374 183.888 16.318C183.953 16.2527 184.033 16.22 184.126 16.22H184.77C184.863 16.22 184.938 16.2527 184.994 16.318C185.059 16.374 185.092 16.4487 185.092 16.542V17.158C185.316 16.85 185.615 16.5933 185.988 16.388C186.361 16.1827 186.828 16.08 187.388 16.08C187.911 16.08 188.354 16.1687 188.718 16.346C189.091 16.5233 189.395 16.766 189.628 17.074C189.871 17.382 190.053 17.732 190.174 18.124C190.295 18.516 190.361 18.936 190.37 19.384C190.379 19.5333 190.384 19.692 190.384 19.86C190.384 20.028 190.379 20.1867 190.37 20.336C190.361 20.7747 190.295 21.1947 190.174 21.596C190.053 21.988 189.871 22.338 189.628 22.646C189.395 22.9447 189.091 23.1873 188.718 23.374C188.354 23.5513 187.911 23.64 187.388 23.64C186.847 23.64 186.389 23.542 186.016 23.346C185.652 23.1407 185.353 22.8887 185.12 22.59V25.838C185.12 25.9313 185.092 26.006 185.036 26.062C184.98 26.1273 184.901 26.16 184.798 26.16H184.126ZM187.094 22.506C187.579 22.506 187.957 22.4033 188.228 22.198C188.508 21.9833 188.709 21.708 188.83 21.372C188.951 21.0267 189.021 20.658 189.04 20.266C189.049 19.9953 189.049 19.7247 189.04 19.454C189.021 19.062 188.951 18.698 188.83 18.362C188.709 18.0167 188.508 17.7413 188.228 17.536C187.957 17.3213 187.579 17.214 187.094 17.214C186.637 17.214 186.263 17.3213 185.974 17.536C185.694 17.7507 185.484 18.026 185.344 18.362C185.213 18.6887 185.139 19.0247 185.12 19.37C185.111 19.5193 185.106 19.6967 185.106 19.902C185.106 20.1073 185.111 20.2893 185.12 20.448C185.129 20.7747 185.204 21.0967 185.344 21.414C185.493 21.7313 185.713 21.9927 186.002 22.198C186.291 22.4033 186.655 22.506 187.094 22.506ZM195.112 23.64C194.402 23.64 193.81 23.5047 193.334 23.234C192.858 22.9633 192.494 22.59 192.242 22.114C191.99 21.6287 191.85 21.078 191.822 20.462C191.812 20.3033 191.808 20.1027 191.808 19.86C191.808 19.608 191.812 19.4073 191.822 19.258C191.85 18.6327 191.99 18.082 192.242 17.606C192.503 17.13 192.872 16.7567 193.348 16.486C193.824 16.2153 194.412 16.08 195.112 16.08C195.812 16.08 196.4 16.2153 196.876 16.486C197.352 16.7567 197.716 17.13 197.968 17.606C198.229 18.082 198.374 18.6327 198.402 19.258C198.411 19.4073 198.416 19.608 198.416 19.86C198.416 20.1027 198.411 20.3033 198.402 20.462C198.374 21.078 198.234 21.6287 197.982 22.114C197.73 22.59 197.366 22.9633 196.89 23.234C196.414 23.5047 195.821 23.64 195.112 23.64ZM195.112 22.562C195.69 22.562 196.152 22.38 196.498 22.016C196.843 21.6427 197.03 21.1013 197.058 20.392C197.067 20.252 197.072 20.0747 197.072 19.86C197.072 19.6453 197.067 19.468 197.058 19.328C197.03 18.6187 196.843 18.082 196.498 17.718C196.152 17.3447 195.69 17.158 195.112 17.158C194.533 17.158 194.066 17.3447 193.712 17.718C193.366 18.082 193.184 18.6187 193.166 19.328C193.156 19.468 193.152 19.6453 193.152 19.86C193.152 20.0747 193.156 20.252 193.166 20.392C193.184 21.1013 193.366 21.6427 193.712 22.016C194.066 22.38 194.533 22.562 195.112 22.562ZM200.491 23.5C200.397 23.5 200.318 23.472 200.253 23.416C200.197 23.3507 200.169 23.2713 200.169 23.178V16.542C200.169 16.4487 200.197 16.374 200.253 16.318C200.318 16.2527 200.397 16.22 200.491 16.22H201.149C201.242 16.22 201.317 16.2527 201.373 16.318C201.438 16.374 201.471 16.4487 201.471 16.542V19.23H202.745L204.635 16.43C204.681 16.3647 204.733 16.3133 204.789 16.276C204.845 16.2387 204.919 16.22 205.013 16.22H205.741C205.825 16.22 205.895 16.2387 205.951 16.276C206.007 16.3133 206.035 16.3693 206.035 16.444C206.035 16.4627 206.025 16.4907 206.007 16.528C205.997 16.556 205.983 16.584 205.965 16.612L203.865 19.706L206.245 23.094C206.291 23.15 206.315 23.2107 206.315 23.276C206.315 23.3507 206.287 23.4067 206.231 23.444C206.184 23.4813 206.119 23.5 206.035 23.5H205.181C205.097 23.5 205.027 23.4813 204.971 23.444C204.915 23.4067 204.863 23.3553 204.817 23.29L202.759 20.364H201.471V23.178C201.471 23.2713 201.438 23.3507 201.373 23.416C201.317 23.472 201.242 23.5 201.149 23.5H200.491ZM212.267 23.5C212.164 23.5 212.085 23.472 212.029 23.416C211.973 23.3507 211.945 23.2713 211.945 23.178V20.546C211.693 20.7793 211.385 20.952 211.021 21.064C210.666 21.1667 210.26 21.218 209.803 21.218C208.981 21.218 208.342 21.036 207.885 20.672C207.437 20.308 207.213 19.72 207.213 18.908V16.542C207.213 16.4487 207.241 16.374 207.297 16.318C207.362 16.2527 207.441 16.22 207.535 16.22H208.221C208.314 16.22 208.389 16.2527 208.445 16.318C208.51 16.374 208.543 16.4487 208.543 16.542V18.824C208.543 19.244 208.664 19.552 208.907 19.748C209.159 19.944 209.541 20.042 210.055 20.042C210.624 20.042 211.081 19.972 211.427 19.832C211.772 19.6827 211.945 19.4213 211.945 19.048V16.542C211.945 16.4487 211.973 16.374 212.029 16.318C212.085 16.2527 212.164 16.22 212.267 16.22H212.967C213.06 16.22 213.135 16.2527 213.191 16.318C213.256 16.374 213.289 16.4487 213.289 16.542V23.178C213.289 23.2713 213.256 23.3507 213.191 23.416C213.135 23.472 213.06 23.5 212.967 23.5H212.267ZM215.68 23.5C215.596 23.5 215.521 23.472 215.456 23.416C215.4 23.3507 215.372 23.2807 215.372 23.206V16.542C215.372 16.4487 215.4 16.374 215.456 16.318C215.521 16.2527 215.601 16.22 215.694 16.22H216.366C216.459 16.22 216.534 16.2527 216.59 16.318C216.646 16.374 216.674 16.4487 216.674 16.542V22.478L216.31 22.1L220.552 16.43C220.599 16.374 220.65 16.3273 220.706 16.29C220.762 16.2433 220.832 16.22 220.916 16.22H221.56C221.635 16.22 221.7 16.248 221.756 16.304C221.821 16.36 221.854 16.4253 221.854 16.5V23.178C221.854 23.2713 221.821 23.3507 221.756 23.416C221.7 23.472 221.625 23.5 221.532 23.5H220.874C220.771 23.5 220.692 23.472 220.636 23.416C220.58 23.3507 220.552 23.2713 220.552 23.178V17.592L220.944 17.578L216.674 23.29C216.637 23.3367 216.59 23.3833 216.534 23.43C216.478 23.4767 216.403 23.5 216.31 23.5H215.68ZM223.483 25.04C223.39 25.04 223.311 25.0073 223.245 24.942C223.189 24.886 223.161 24.8113 223.161 24.718V22.702C223.161 22.6087 223.189 22.534 223.245 22.478C223.311 22.4127 223.39 22.38 223.483 22.38H223.553C223.805 22.3707 224.02 22.2307 224.197 21.96C224.375 21.68 224.51 21.246 224.603 20.658C224.697 20.0607 224.743 19.286 224.743 18.334V16.542C224.743 16.4487 224.771 16.374 224.827 16.318C224.893 16.2527 224.972 16.22 225.065 16.22H229.531C229.625 16.22 229.699 16.2527 229.755 16.318C229.821 16.374 229.853 16.4487 229.853 16.542V22.352H230.511C230.614 22.352 230.693 22.3847 230.749 22.45C230.805 22.506 230.833 22.5807 230.833 22.674V24.718C230.833 24.8113 230.805 24.886 230.749 24.942C230.693 25.0073 230.614 25.04 230.511 25.04H229.853C229.76 25.04 229.681 25.0073 229.615 24.942C229.559 24.886 229.531 24.8113 229.531 24.718V23.5H224.463V24.718C224.463 24.8113 224.431 24.886 224.365 24.942C224.309 25.0073 224.235 25.04 224.141 25.04H223.483ZM225.219 22.38L228.551 22.352V17.34H226.017V18.488C226.017 19.4773 225.947 20.2893 225.807 20.924C225.667 21.5493 225.471 22.0347 225.219 22.38ZM234.328 23.64C233.861 23.64 233.436 23.5467 233.054 23.36C232.671 23.1733 232.363 22.9213 232.13 22.604C231.896 22.2867 231.78 21.9273 231.78 21.526C231.78 20.882 232.041 20.3687 232.564 19.986C233.086 19.6033 233.768 19.3513 234.608 19.23L236.694 18.936V18.53C236.694 18.082 236.563 17.732 236.302 17.48C236.05 17.228 235.634 17.102 235.056 17.102C234.636 17.102 234.295 17.186 234.034 17.354C233.782 17.522 233.604 17.7367 233.502 17.998C233.446 18.138 233.348 18.208 233.208 18.208H232.578C232.475 18.208 232.396 18.18 232.34 18.124C232.293 18.0587 232.27 17.984 232.27 17.9C232.27 17.76 232.321 17.5873 232.424 17.382C232.536 17.1767 232.704 16.976 232.928 16.78C233.152 16.584 233.436 16.4207 233.782 16.29C234.136 16.15 234.566 16.08 235.07 16.08C235.63 16.08 236.101 16.1547 236.484 16.304C236.866 16.444 237.165 16.6353 237.38 16.878C237.604 17.1207 237.762 17.396 237.856 17.704C237.958 18.012 238.01 18.3247 238.01 18.642V23.178C238.01 23.2713 237.977 23.3507 237.912 23.416C237.856 23.472 237.781 23.5 237.688 23.5H237.044C236.941 23.5 236.862 23.472 236.806 23.416C236.75 23.3507 236.722 23.2713 236.722 23.178V22.576C236.6 22.744 236.437 22.912 236.232 23.08C236.026 23.2387 235.77 23.374 235.462 23.486C235.154 23.5887 234.776 23.64 234.328 23.64ZM234.622 22.59C235.004 22.59 235.354 22.5107 235.672 22.352C235.989 22.184 236.236 21.9273 236.414 21.582C236.6 21.2367 236.694 20.8027 236.694 20.28V19.888L235.07 20.126C234.407 20.2193 233.908 20.378 233.572 20.602C233.236 20.8167 233.068 21.092 233.068 21.428C233.068 21.6893 233.142 21.9087 233.292 22.086C233.45 22.254 233.646 22.38 233.88 22.464C234.122 22.548 234.37 22.59 234.622 22.59ZM240.344 23.5C240.251 23.5 240.172 23.472 240.106 23.416C240.05 23.3507 240.022 23.2713 240.022 23.178V16.542C240.022 16.4487 240.05 16.374 240.106 16.318C240.172 16.2527 240.251 16.22 240.344 16.22H241.016C241.11 16.22 241.184 16.2527 241.24 16.318C241.296 16.374 241.324 16.4487 241.324 16.542V19.23H245.146V16.542C245.146 16.4487 245.174 16.374 245.23 16.318C245.296 16.2527 245.375 16.22 245.468 16.22H246.126C246.22 16.22 246.294 16.2527 246.35 16.318C246.416 16.374 246.448 16.4487 246.448 16.542V23.178C246.448 23.2713 246.416 23.3507 246.35 23.416C246.294 23.472 246.22 23.5 246.126 23.5H245.468C245.375 23.5 245.296 23.472 245.23 23.416C245.174 23.3507 245.146 23.2713 245.146 23.178V20.35H241.324V23.178C241.324 23.2713 241.296 23.3507 241.24 23.416C241.184 23.472 241.11 23.5 241.016 23.5H240.344ZM91.572 45.5C91.4693 45.5 91.39 45.472 91.334 45.416C91.278 45.3507 91.25 45.2713 91.25 45.178V42.896H89.64V42.826C88.7627 42.826 88.1093 42.6113 87.68 42.182C87.26 41.7433 87.05 41.188 87.05 40.516C87.05 39.732 87.2787 39.1533 87.736 38.78C88.2027 38.4067 88.9027 38.22 89.836 38.22H92.244C92.3373 38.22 92.412 38.2527 92.468 38.318C92.5333 38.374 92.566 38.4487 92.566 38.542V45.178C92.566 45.2713 92.5333 45.3507 92.468 45.416C92.412 45.472 92.3373 45.5 92.244 45.5H91.572ZM87.134 45.5C87.05 45.5 86.98 45.472 86.924 45.416C86.868 45.36 86.84 45.2947 86.84 45.22C86.84 45.1827 86.8447 45.1453 86.854 45.108C86.8727 45.0613 86.9007 45.0147 86.938 44.968L88.604 42.504L89.948 42.602L88.17 45.29C88.1327 45.3367 88.0813 45.3833 88.016 45.43C87.9507 45.4767 87.8807 45.5 87.806 45.5H87.134ZM89.682 41.846H91.264V39.27H89.794C89.2713 39.27 88.884 39.3633 88.632 39.55C88.3893 39.7273 88.268 40.0493 88.268 40.516C88.268 40.8987 88.38 41.216 88.604 41.468C88.8373 41.72 89.1967 41.846 89.682 41.846ZM94.3152 45.5C94.2406 45.5 94.1706 45.472 94.1052 45.416C94.0492 45.36 94.0212 45.29 94.0212 45.206C94.0212 45.178 94.0259 45.1453 94.0352 45.108C94.0539 45.0613 94.0819 45.01 94.1192 44.954L96.5552 41.776L94.2732 38.766C94.2359 38.71 94.2079 38.6633 94.1892 38.626C94.1799 38.5887 94.1752 38.5513 94.1752 38.514C94.1752 38.43 94.2032 38.36 94.2592 38.304C94.3152 38.248 94.3852 38.22 94.4692 38.22H95.1832C95.2859 38.22 95.3606 38.248 95.4072 38.304C95.4632 38.3507 95.5099 38.3973 95.5472 38.444L97.4092 40.866L99.2712 38.458C99.3086 38.4113 99.3506 38.36 99.3972 38.304C99.4532 38.248 99.5326 38.22 99.6352 38.22H100.321C100.405 38.22 100.475 38.248 100.531 38.304C100.587 38.36 100.615 38.43 100.615 38.514C100.615 38.5513 100.606 38.5887 100.587 38.626C100.578 38.6633 100.555 38.71 100.517 38.766L98.2072 41.804L100.643 44.954C100.681 45.01 100.704 45.0567 100.713 45.094C100.732 45.1313 100.741 45.1687 100.741 45.206C100.741 45.29 100.713 45.36 100.657 45.416C100.601 45.472 100.531 45.5 100.447 45.5H99.7052C99.6119 45.5 99.5372 45.4767 99.4812 45.43C99.4252 45.3833 99.3786 45.3367 99.3412 45.29L97.3672 42.728L95.3932 45.29C95.3559 45.3273 95.3092 45.374 95.2532 45.43C95.2066 45.4767 95.1319 45.5 95.0292 45.5H94.3152ZM102.52 45.5C102.427 45.5 102.347 45.472 102.282 45.416C102.226 45.3507 102.198 45.2713 102.198 45.178V38.542C102.198 38.4487 102.226 38.374 102.282 38.318C102.347 38.2527 102.427 38.22 102.52 38.22H103.164C103.257 38.22 103.332 38.2527 103.388 38.318C103.453 38.374 103.486 38.4487 103.486 38.542V44.38H106.048V38.542C106.048 38.4487 106.076 38.374 106.132 38.318C106.197 38.2527 106.277 38.22 106.37 38.22H106.958C107.061 38.22 107.14 38.2527 107.196 38.318C107.252 38.374 107.28 38.4487 107.28 38.542V44.38H109.842V38.542C109.842 38.4487 109.87 38.374 109.926 38.318C109.991 38.2527 110.071 38.22 110.164 38.22H110.808C110.901 38.22 110.976 38.2527 111.032 38.318C111.097 38.374 111.13 38.4487 111.13 38.542V45.178C111.13 45.2713 111.097 45.3507 111.032 45.416C110.976 45.472 110.901 45.5 110.808 45.5H102.52ZM113.526 45.5C113.442 45.5 113.367 45.472 113.302 45.416C113.246 45.3507 113.218 45.2807 113.218 45.206V38.542C113.218 38.4487 113.246 38.374 113.302 38.318C113.367 38.2527 113.446 38.22 113.54 38.22H114.212C114.305 38.22 114.38 38.2527 114.436 38.318C114.492 38.374 114.52 38.4487 114.52 38.542V44.478L114.156 44.1L118.398 38.43C118.444 38.374 118.496 38.3273 118.552 38.29C118.608 38.2433 118.678 38.22 118.762 38.22H119.406C119.48 38.22 119.546 38.248 119.602 38.304C119.667 38.36 119.7 38.4253 119.7 38.5V45.178C119.7 45.2713 119.667 45.3507 119.602 45.416C119.546 45.472 119.471 45.5 119.378 45.5H118.72C118.617 45.5 118.538 45.472 118.482 45.416C118.426 45.3507 118.398 45.2713 118.398 45.178V39.592L118.79 39.578L114.52 45.29C114.482 45.3367 114.436 45.3833 114.38 45.43C114.324 45.4767 114.249 45.5 114.156 45.5H113.526ZM122.085 48.16C121.992 48.16 121.912 48.1273 121.847 48.062C121.791 48.006 121.763 47.9313 121.763 47.838V38.542C121.763 38.4487 121.791 38.374 121.847 38.318C121.912 38.2527 121.992 38.22 122.085 38.22H122.729C122.822 38.22 122.897 38.2527 122.953 38.318C123.018 38.374 123.051 38.4487 123.051 38.542V39.158C123.275 38.85 123.574 38.5933 123.947 38.388C124.32 38.1827 124.787 38.08 125.347 38.08C125.87 38.08 126.313 38.1687 126.677 38.346C127.05 38.5233 127.354 38.766 127.587 39.074C127.83 39.382 128.012 39.732 128.133 40.124C128.254 40.516 128.32 40.936 128.329 41.384C128.338 41.5333 128.343 41.692 128.343 41.86C128.343 42.028 128.338 42.1867 128.329 42.336C128.32 42.7747 128.254 43.1947 128.133 43.596C128.012 43.988 127.83 44.338 127.587 44.646C127.354 44.9447 127.05 45.1873 126.677 45.374C126.313 45.5513 125.87 45.64 125.347 45.64C124.806 45.64 124.348 45.542 123.975 45.346C123.611 45.1407 123.312 44.8887 123.079 44.59V47.838C123.079 47.9313 123.051 48.006 122.995 48.062C122.939 48.1273 122.86 48.16 122.757 48.16H122.085ZM125.053 44.506C125.538 44.506 125.916 44.4033 126.187 44.198C126.467 43.9833 126.668 43.708 126.789 43.372C126.91 43.0267 126.98 42.658 126.999 42.266C127.008 41.9953 127.008 41.7247 126.999 41.454C126.98 41.062 126.91 40.698 126.789 40.362C126.668 40.0167 126.467 39.7413 126.187 39.536C125.916 39.3213 125.538 39.214 125.053 39.214C124.596 39.214 124.222 39.3213 123.933 39.536C123.653 39.7507 123.443 40.026 123.303 40.362C123.172 40.6887 123.098 41.0247 123.079 41.37C123.07 41.5193 123.065 41.6967 123.065 41.902C123.065 42.1073 123.07 42.2893 123.079 42.448C123.088 42.7747 123.163 43.0967 123.303 43.414C123.452 43.7313 123.672 43.9927 123.961 44.198C124.25 44.4033 124.614 44.506 125.053 44.506ZM133.071 45.64C132.361 45.64 131.769 45.5047 131.293 45.234C130.817 44.9633 130.453 44.59 130.201 44.114C129.949 43.6287 129.809 43.078 129.781 42.462C129.771 42.3033 129.767 42.1027 129.767 41.86C129.767 41.608 129.771 41.4073 129.781 41.258C129.809 40.6327 129.949 40.082 130.201 39.606C130.462 39.13 130.831 38.7567 131.307 38.486C131.783 38.2153 132.371 38.08 133.071 38.08C133.771 38.08 134.359 38.2153 134.835 38.486C135.311 38.7567 135.675 39.13 135.927 39.606C136.188 40.082 136.333 40.6327 136.361 41.258C136.37 41.4073 136.375 41.608 136.375 41.86C136.375 42.1027 136.37 42.3033 136.361 42.462C136.333 43.078 136.193 43.6287 135.941 44.114C135.689 44.59 135.325 44.9633 134.849 45.234C134.373 45.5047 133.78 45.64 133.071 45.64ZM133.071 44.562C133.649 44.562 134.111 44.38 134.457 44.016C134.802 43.6427 134.989 43.1013 135.017 42.392C135.026 42.252 135.031 42.0747 135.031 41.86C135.031 41.6453 135.026 41.468 135.017 41.328C134.989 40.6187 134.802 40.082 134.457 39.718C134.111 39.3447 133.649 39.158 133.071 39.158C132.492 39.158 132.025 39.3447 131.671 39.718C131.325 40.082 131.143 40.6187 131.125 41.328C131.115 41.468 131.111 41.6453 131.111 41.86C131.111 42.0747 131.115 42.252 131.125 42.392C131.143 43.1013 131.325 43.6427 131.671 44.016C132.025 44.38 132.492 44.562 133.071 44.562ZM138.45 45.5C138.356 45.5 138.277 45.472 138.212 45.416C138.156 45.3507 138.128 45.2713 138.128 45.178V38.542C138.128 38.4487 138.156 38.374 138.212 38.318C138.277 38.2527 138.356 38.22 138.45 38.22H139.108C139.201 38.22 139.276 38.2527 139.332 38.318C139.397 38.374 139.43 38.4487 139.43 38.542V41.23H140.704L142.594 38.43C142.64 38.3647 142.692 38.3133 142.748 38.276C142.804 38.2387 142.878 38.22 142.972 38.22H143.7C143.784 38.22 143.854 38.2387 143.91 38.276C143.966 38.3133 143.994 38.3693 143.994 38.444C143.994 38.4627 143.984 38.4907 143.966 38.528C143.956 38.556 143.942 38.584 143.924 38.612L141.824 41.706L144.204 45.094C144.25 45.15 144.274 45.2107 144.274 45.276C144.274 45.3507 144.246 45.4067 144.19 45.444C144.143 45.4813 144.078 45.5 143.994 45.5H143.14C143.056 45.5 142.986 45.4813 142.93 45.444C142.874 45.4067 142.822 45.3553 142.776 45.29L140.718 42.364H139.43V45.178C139.43 45.2713 139.397 45.3507 139.332 45.416C139.276 45.472 139.201 45.5 139.108 45.5H138.45ZM149.387 45.5C149.294 45.5 149.215 45.472 149.149 45.416C149.093 45.3507 149.065 45.2713 149.065 45.178V38.542C149.065 38.4487 149.093 38.374 149.149 38.318C149.215 38.2527 149.294 38.22 149.387 38.22H150.059C150.153 38.22 150.227 38.2527 150.283 38.318C150.339 38.374 150.367 38.4487 150.367 38.542V41.23H154.189V38.542C154.189 38.4487 154.217 38.374 154.273 38.318C154.339 38.2527 154.418 38.22 154.511 38.22H155.169C155.263 38.22 155.337 38.2527 155.393 38.318C155.459 38.374 155.491 38.4487 155.491 38.542V45.178C155.491 45.2713 155.459 45.3507 155.393 45.416C155.337 45.472 155.263 45.5 155.169 45.5H154.511C154.418 45.5 154.339 45.472 154.273 45.416C154.217 45.3507 154.189 45.2713 154.189 45.178V42.35H150.367V45.178C150.367 45.2713 150.339 45.3507 150.283 45.416C150.227 45.472 150.153 45.5 150.059 45.5H149.387ZM159.627 45.64C159.16 45.64 158.735 45.5467 158.353 45.36C157.97 45.1733 157.662 44.9213 157.429 44.604C157.195 44.2867 157.079 43.9273 157.079 43.526C157.079 42.882 157.34 42.3687 157.863 41.986C158.385 41.6033 159.067 41.3513 159.907 41.23L161.993 40.936V40.53C161.993 40.082 161.862 39.732 161.601 39.48C161.349 39.228 160.933 39.102 160.355 39.102C159.935 39.102 159.594 39.186 159.333 39.354C159.081 39.522 158.903 39.7367 158.801 39.998C158.745 40.138 158.647 40.208 158.507 40.208H157.877C157.774 40.208 157.695 40.18 157.639 40.124C157.592 40.0587 157.569 39.984 157.569 39.9C157.569 39.76 157.62 39.5873 157.723 39.382C157.835 39.1767 158.003 38.976 158.227 38.78C158.451 38.584 158.735 38.4207 159.081 38.29C159.435 38.15 159.865 38.08 160.369 38.08C160.929 38.08 161.4 38.1547 161.783 38.304C162.165 38.444 162.464 38.6353 162.679 38.878C162.903 39.1207 163.061 39.396 163.155 39.704C163.257 40.012 163.309 40.3247 163.309 40.642V45.178C163.309 45.2713 163.276 45.3507 163.211 45.416C163.155 45.472 163.08 45.5 162.987 45.5H162.343C162.24 45.5 162.161 45.472 162.105 45.416C162.049 45.3507 162.021 45.2713 162.021 45.178V44.576C161.899 44.744 161.736 44.912 161.531 45.08C161.325 45.2387 161.069 45.374 160.761 45.486C160.453 45.5887 160.075 45.64 159.627 45.64ZM159.921 44.59C160.303 44.59 160.653 44.5107 160.971 44.352C161.288 44.184 161.535 43.9273 161.713 43.582C161.899 43.2367 161.993 42.8027 161.993 42.28V41.888L160.369 42.126C159.706 42.2193 159.207 42.378 158.871 42.602C158.535 42.8167 158.367 43.092 158.367 43.428C158.367 43.6893 158.441 43.9087 158.591 44.086C158.749 44.254 158.945 44.38 159.179 44.464C159.421 44.548 159.669 44.59 159.921 44.59ZM167.547 45.5C167.454 45.5 167.374 45.472 167.309 45.416C167.253 45.3507 167.225 45.2713 167.225 45.178V39.34H164.789C164.696 39.34 164.616 39.312 164.551 39.256C164.495 39.1907 164.467 39.1113 164.467 39.018V38.542C164.467 38.4487 164.495 38.374 164.551 38.318C164.616 38.2527 164.696 38.22 164.789 38.22H170.949C171.042 38.22 171.117 38.2527 171.173 38.318C171.238 38.374 171.271 38.4487 171.271 38.542V39.018C171.271 39.1113 171.238 39.1907 171.173 39.256C171.117 39.312 171.042 39.34 170.949 39.34H168.513V45.178C168.513 45.2713 168.485 45.3507 168.429 45.416C168.373 45.472 168.294 45.5 168.191 45.5H167.547ZM172.793 45.5C172.709 45.5 172.635 45.472 172.569 45.416C172.513 45.3507 172.485 45.2807 172.485 45.206V38.542C172.485 38.4487 172.513 38.374 172.569 38.318C172.635 38.2527 172.714 38.22 172.807 38.22H173.479C173.573 38.22 173.647 38.2527 173.703 38.318C173.759 38.374 173.787 38.4487 173.787 38.542V44.478L173.423 44.1L177.665 38.43C177.712 38.374 177.763 38.3273 177.819 38.29C177.875 38.2433 177.945 38.22 178.029 38.22H178.673C178.748 38.22 178.813 38.248 178.869 38.304C178.935 38.36 178.967 38.4253 178.967 38.5V45.178C178.967 45.2713 178.935 45.3507 178.869 45.416C178.813 45.472 178.739 45.5 178.645 45.5H177.987C177.885 45.5 177.805 45.472 177.749 45.416C177.693 45.3507 177.665 45.2713 177.665 45.178V39.592L178.057 39.578L173.787 45.29C173.75 45.3367 173.703 45.3833 173.647 45.43C173.591 45.4767 173.517 45.5 173.423 45.5H172.793ZM180.582 45.5C180.498 45.5 180.428 45.4813 180.372 45.444C180.326 45.4067 180.302 45.3507 180.302 45.276C180.302 45.2293 180.326 45.1687 180.372 45.094L182.766 41.692L180.652 38.612C180.634 38.584 180.62 38.556 180.61 38.528C180.601 38.4907 180.596 38.4627 180.596 38.444C180.596 38.3693 180.62 38.3133 180.666 38.276C180.722 38.2387 180.792 38.22 180.876 38.22H181.604C181.698 38.22 181.772 38.2387 181.828 38.276C181.884 38.3133 181.936 38.3647 181.982 38.43L183.872 41.23H184.936V38.542C184.936 38.4487 184.964 38.374 185.02 38.318C185.086 38.2527 185.165 38.22 185.258 38.22H185.902C186.005 38.22 186.084 38.2527 186.14 38.318C186.196 38.374 186.224 38.4487 186.224 38.542V41.23H187.246L189.164 38.43C189.202 38.3647 189.248 38.3133 189.304 38.276C189.37 38.2387 189.444 38.22 189.528 38.22H190.27C190.354 38.22 190.42 38.2387 190.466 38.276C190.522 38.3133 190.55 38.3693 190.55 38.444C190.55 38.4627 190.541 38.4907 190.522 38.528C190.513 38.556 190.499 38.584 190.48 38.612L188.38 41.692L190.774 45.094C190.812 45.15 190.83 45.2107 190.83 45.276C190.83 45.3507 190.807 45.4067 190.76 45.444C190.714 45.4813 190.644 45.5 190.55 45.5H189.71C189.617 45.5 189.538 45.4813 189.472 45.444C189.416 45.4067 189.37 45.3553 189.332 45.29L187.288 42.35H186.224V45.178C186.224 45.2713 186.196 45.3507 186.14 45.416C186.084 45.472 186.005 45.5 185.902 45.5H185.258C185.165 45.5 185.086 45.472 185.02 45.416C184.964 45.3507 184.936 45.2713 184.936 45.178V42.35H183.872L181.8 45.29C181.772 45.3553 181.726 45.4067 181.66 45.444C181.604 45.4813 181.53 45.5 181.436 45.5H180.582ZM194.216 45.64C193.75 45.64 193.325 45.5467 192.942 45.36C192.56 45.1733 192.252 44.9213 192.018 44.604C191.785 44.2867 191.668 43.9273 191.668 43.526C191.668 42.882 191.93 42.3687 192.452 41.986C192.975 41.6033 193.656 41.3513 194.496 41.23L196.582 40.936V40.53C196.582 40.082 196.452 39.732 196.19 39.48C195.938 39.228 195.523 39.102 194.944 39.102C194.524 39.102 194.184 39.186 193.922 39.354C193.67 39.522 193.493 39.7367 193.39 39.998C193.334 40.138 193.236 40.208 193.096 40.208H192.466C192.364 40.208 192.284 40.18 192.228 40.124C192.182 40.0587 192.158 39.984 192.158 39.9C192.158 39.76 192.21 39.5873 192.312 39.382C192.424 39.1767 192.592 38.976 192.816 38.78C193.04 38.584 193.325 38.4207 193.67 38.29C194.025 38.15 194.454 38.08 194.958 38.08C195.518 38.08 195.99 38.1547 196.372 38.304C196.755 38.444 197.054 38.6353 197.268 38.878C197.492 39.1207 197.651 39.396 197.744 39.704C197.847 40.012 197.898 40.3247 197.898 40.642V45.178C197.898 45.2713 197.866 45.3507 197.8 45.416C197.744 45.472 197.67 45.5 197.576 45.5H196.932C196.83 45.5 196.75 45.472 196.694 45.416C196.638 45.3507 196.61 45.2713 196.61 45.178V44.576C196.489 44.744 196.326 44.912 196.12 45.08C195.915 45.2387 195.658 45.374 195.35 45.486C195.042 45.5887 194.664 45.64 194.216 45.64ZM194.51 44.59C194.893 44.59 195.243 44.5107 195.56 44.352C195.878 44.184 196.125 43.9273 196.302 43.582C196.489 43.2367 196.582 42.8027 196.582 42.28V41.888L194.958 42.126C194.296 42.2193 193.796 42.378 193.46 42.602C193.124 42.8167 192.956 43.092 192.956 43.428C192.956 43.6893 193.031 43.9087 193.18 44.086C193.339 44.254 193.535 44.38 193.768 44.464C194.011 44.548 194.258 44.59 194.51 44.59Z" fill="#212529"/>
</svg>
