<svg width="134" height="87" viewBox="0 0 134 87" fill="none" xmlns="http://www.w3.org/2000/svg">
<path d="M11.1944 68.5C10.7624 68.5 10.4024 68.356 10.1144 68.068C9.82644 67.732 9.68244 67.348 9.68244 66.916C9.68244 66.724 9.73044 66.508 9.82644 66.268L26.8184 27.748H4.71444C4.23444 27.748 3.80244 27.58 3.41844 27.244C3.08244 26.908 2.91444 26.5 2.91444 26.02V19.9C2.91444 19.372 3.08244 18.94 3.41844 18.604C3.80244 18.268 4.23444 18.1 4.71444 18.1H37.3304C37.9064 18.1 38.3384 18.268 38.6264 18.604C38.9624 18.94 39.1304 19.372 39.1304 19.9V25.3C39.1304 26.02 39.0584 26.62 38.9144 27.1C38.8184 27.532 38.6504 27.988 38.4104 28.468L21.4904 66.772C21.3464 67.06 21.0824 67.42 20.6984 67.852C20.3624 68.284 19.8104 68.5 19.0424 68.5H11.1944ZM65.0229 69.22C61.6629 69.22 58.6869 68.836 56.0949 68.068C53.5509 67.252 51.4149 66.148 49.6869 64.756C47.9589 63.316 46.6629 61.66 45.7989 59.788C44.9349 57.868 44.5029 55.78 44.5029 53.524C44.5029 50.788 45.1749 48.412 46.5189 46.396C47.8629 44.38 49.5669 42.82 51.6309 41.716C49.9509 40.612 48.6309 39.22 47.6709 37.54C46.7589 35.812 46.3029 33.82 46.3029 31.564C46.3029 28.828 46.9989 26.404 48.3909 24.292C49.7829 22.18 51.8469 20.5 54.5829 19.252C57.3669 18.004 60.8469 17.38 65.0229 17.38C69.1509 17.38 72.5829 18.004 75.3189 19.252C78.0549 20.452 80.1189 22.108 81.5109 24.22C82.9029 26.332 83.5989 28.756 83.5989 31.492C83.5989 33.748 83.1429 35.74 82.2309 37.468C81.3189 39.196 80.0229 40.612 78.3429 41.716C80.5509 42.772 82.3029 44.332 83.5989 46.396C84.8949 48.46 85.5429 50.86 85.5429 53.596C85.5429 56.572 84.7749 59.236 83.2389 61.588C81.7029 63.94 79.3989 65.812 76.3269 67.204C73.2549 68.548 69.4869 69.22 65.0229 69.22ZM65.0229 60.94C66.7029 60.94 68.2389 60.652 69.6309 60.076C71.0229 59.452 72.1029 58.588 72.8709 57.484C73.6869 56.38 74.0949 55.084 74.0949 53.596C74.0949 52.06 73.6869 50.764 72.8709 49.708C72.1029 48.604 71.0229 47.764 69.6309 47.188C68.2389 46.564 66.7029 46.252 65.0229 46.252C63.2949 46.252 61.7349 46.564 60.3429 47.188C58.9989 47.764 57.9189 48.604 57.1029 49.708C56.2869 50.764 55.8789 52.06 55.8789 53.596C55.8789 55.084 56.2869 56.38 57.1029 57.484C57.9189 58.588 58.9989 59.452 60.3429 60.076C61.7349 60.652 63.2949 60.94 65.0229 60.94ZM65.0229 38.404C66.5109 38.356 67.8549 38.068 69.0549 37.54C70.2549 37.012 71.2149 36.292 71.9349 35.38C72.6549 34.42 73.0149 33.316 73.0149 32.068C73.0149 30.772 72.6549 29.668 71.9349 28.756C71.2629 27.796 70.3269 27.052 69.1269 26.524C67.9269 25.996 66.5589 25.732 65.0229 25.732C63.4869 25.732 62.0949 25.996 60.8469 26.524C59.6469 27.052 58.7109 27.796 58.0389 28.756C57.3669 29.668 57.0309 30.772 57.0309 32.068C57.0309 33.364 57.3669 34.492 58.0389 35.452C58.7109 36.364 59.6469 37.084 60.8469 37.612C62.0949 38.14 63.4869 38.404 65.0229 38.404Z" fill="#0956AF"/>
<path d="M101.53 15.47C101.389 15.3296 101.199 15.2507 101 15.2507C100.801 15.2507 100.611 15.3296 100.47 15.47L93.47 22.47C93.3653 22.5749 93.2939 22.7085 93.265 22.8539C93.2362 22.9993 93.251 23.15 93.3077 23.2869C93.3644 23.4239 93.4605 23.541 93.5837 23.6234C93.7069 23.7058 93.8518 23.7499 94 23.75H108C108.148 23.7499 108.293 23.7058 108.416 23.6234C108.54 23.541 108.636 23.4239 108.692 23.2869C108.749 23.15 108.764 22.9993 108.735 22.8539C108.706 22.7085 108.635 22.5749 108.53 22.47L101.53 15.47Z" fill="#28A264"/>
<path d="M115.535 30.5C115.301 30.5 115.109 30.4253 114.959 30.276C114.81 30.1267 114.735 29.9347 114.735 29.7V27.78C114.735 27.6093 114.778 27.3853 114.863 27.108C114.97 26.8093 115.194 26.5213 115.535 26.244L119.759 22.052C121.317 20.8573 122.575 19.844 123.535 19.012C124.517 18.18 125.242 17.4227 125.711 16.74C126.181 16.0573 126.415 15.396 126.415 14.756C126.415 13.924 126.181 13.2413 125.711 12.708C125.263 12.1533 124.527 11.876 123.503 11.876C122.821 11.876 122.245 12.0253 121.775 12.324C121.327 12.6013 120.975 12.9747 120.719 13.444C120.463 13.9133 120.293 14.4253 120.207 14.98C120.143 15.2573 120.005 15.4493 119.791 15.556C119.599 15.6627 119.397 15.716 119.183 15.716H115.791C115.578 15.716 115.407 15.652 115.279 15.524C115.151 15.3747 115.087 15.2147 115.087 15.044C115.109 14.0627 115.311 13.1347 115.695 12.26C116.101 11.3853 116.666 10.6067 117.391 9.924C118.117 9.24133 118.991 8.708 120.015 8.324C121.039 7.91867 122.202 7.716 123.503 7.716C125.295 7.716 126.799 8.01467 128.015 8.612C129.231 9.188 130.149 9.988 130.767 11.012C131.386 12.036 131.695 13.22 131.695 14.564C131.695 15.588 131.482 16.5373 131.055 17.412C130.65 18.2867 130.053 19.1293 129.263 19.94C128.474 20.7293 127.535 21.5507 126.447 22.404L122.671 26.18H131.375C131.61 26.18 131.802 26.2547 131.951 26.404C132.101 26.5533 132.175 26.7453 132.175 26.98V29.7C132.175 29.9347 132.101 30.1267 131.951 30.276C131.802 30.4253 131.61 30.5 131.375 30.5H115.535Z" fill="#28A264"/>
</svg>
